<?xml version="1.0" encoding="UTF-8" standalone="no"?>
<!-- Created with Inkscape (http://www.inkscape.org/) -->

<svg
   width="41.474125mm"
   height="87.875748mm"
   viewBox="0 0 41.474125 87.875748"
   version="1.1"
   id="svg5"
   inkscape:version="1.1 (c68e22c387, 2021-05-23)"
   sodipodi:docname="favicon-light.svg"
   xmlns:inkscape="http://www.inkscape.org/namespaces/inkscape"
   xmlns:sodipodi="http://sodipodi.sourceforge.net/DTD/sodipodi-0.dtd"
   xmlns="http://www.w3.org/2000/svg"
   xmlns:svg="http://www.w3.org/2000/svg">
  <sodipodi:namedview
     id="namedview7"
     pagecolor="#ffffff"
     bordercolor="#666666"
     borderopacity="1.0"
     inkscape:pageshadow="2"
     inkscape:pageopacity="0.0"
     inkscape:pagecheckerboard="0"
     inkscape:document-units="mm"
     showgrid="false"
     showguides="true"
     inkscape:guide-bbox="true"
     inkscape:zoom="0.67081229"
     inkscape:cx="42.485805"
     inkscape:cy="114.04084"
     inkscape:window-width="1920"
     inkscape:window-height="1017"
     inkscape:window-x="1912"
     inkscape:window-y="-8"
     inkscape:window-maximized="1"
     inkscape:current-layer="layer1" />
  <defs
     id="defs2" />
  <g
     inkscape:label="Layer 1"
     inkscape:groupmode="layer"
     id="layer1"
     transform="translate(-85.138926,-172.39599)">
    <rect
       style="fill:none;stroke:#000000;stroke-width:1.32291667;stroke-miterlimit:4;stroke-dasharray:none"
       id="rect1213"
       width="26.475595"
       height="17.058765"
       x="92.639938"
       y="186.21663"
       rx="2.8130448" />
    <rect
       style="fill:none;stroke:#000000;stroke-width:1.32291667;stroke-miterlimit:4;stroke-dasharray:none"
       id="rect1213-2"
       width="35.447819"
       height="24.780966"
       x="88.011269"
       y="181.95053"
       rx="3.7663479" />
    <path
       style="fill:none;stroke:#000000;stroke-width:1.32291667;stroke-linecap:butt;stroke-linejoin:miter;stroke-miterlimit:4;stroke-dasharray:none;stroke-opacity:1"
       d="m 123.60209,191.25784 c 0,0 2.76096,0.0865 2.76096,3.47585 0,3.2372 -2.81026,4.05515 -2.81026,4.05515"
       id="path1813"
       sodipodi:nodetypes="csc" />
    <path
       style="fill:none;stroke:#000000;stroke-width:1.32291667;stroke-linecap:butt;stroke-linejoin:miter;stroke-miterlimit:4;stroke-dasharray:none;stroke-opacity:1"
       d="m 88.149886,191.25788 c 0,0 -2.76096,0.0865 -2.76096,3.47585 0,3.2372 2.81026,4.05515 2.81026,4.05515"
       id="path1813-5"
       sodipodi:nodetypes="csc" />
    <circle
       id="path2133"
       style="fill:#000000;stroke:#000000;stroke-width:1.32291667;stroke-miterlimit:4;stroke-dasharray:none"
       cx="87.887947"
       cy="190.20889"
       r="0.0087068686" />
    <circle
       id="path2135"
       style="fill:#000000;stroke:#000000;stroke-width:1.32291667;stroke-miterlimit:4;stroke-dasharray:none"
       cx="87.887947"
       cy="190.20889"
       r="0.0087068686" />
    <circle
       id="path2141"
       style="fill:#000000;stroke:#000000;stroke-width:1.32291667;stroke-miterlimit:4;stroke-dasharray:none"
       cx="87.957672"
       cy="198.12267"
       r="0.0087068686" />
    <circle
       id="path2143"
       style="fill:#000000;stroke:#000000;stroke-width:1.32291667;stroke-miterlimit:4;stroke-dasharray:none"
       cx="87.957672"
       cy="198.12267"
       r="0.0087068686" />
    <ellipse
       style="fill:#000000;stroke:#000000;stroke-width:1.32291667;stroke-miterlimit:4;stroke-dasharray:none"
       id="path2757"
       cx="98.625549"
       cy="193.36395"
       rx="2.4403634"
       ry="2.3880701" />
    <ellipse
       style="fill:#000000;stroke:#000000;stroke-width:1.32291667;stroke-miterlimit:4;stroke-dasharray:none"
       id="path2781"
       cx="112.25672"
       cy="194.86302"
       rx="2.4403634"
       ry="2.3880701" />
    <path
       id="path2785"
       style="opacity:1;fill:#000000;stroke:#000000;stroke-width:5.00000006;stroke-miterlimit:4;stroke-dasharray:none"
       d="m 388.4375,744.65625 c -0.0227,3.73431 1.78528,7.19687 4.74023,9.07813 2.95465,1.88057 6.60478,1.89323 9.57032,0.0332 2.61982,-1.64395 4.37269,-4.54415 4.72656,-7.82031 0,0 -12.25075,-0.86127 -18.37876,-1.25196 -0.21939,-0.014 -0.65835,-0.0391 -0.65835,-0.0391 z"
       transform="scale(0.26458333)"
       sodipodi:nodetypes="ccccacc" />
    <path
       style="fill:none;stroke:#000000;stroke-width:1.32292;stroke-linecap:butt;stroke-linejoin:miter;stroke-miterlimit:4;stroke-dasharray:none;stroke-opacity:1"
       d="m 88.51547,204.86851 16.42016,36.65775"
       id="path4926"
       sodipodi:nodetypes="cc" />
    <path
       style="fill:none;stroke:#000000;stroke-width:1.32292;stroke-linecap:butt;stroke-linejoin:miter;stroke-miterlimit:4;stroke-dasharray:none;stroke-opacity:1"
       d="m 122.80258,205.07769 -17.86695,36.44857"
       id="path4926-1"
       sodipodi:nodetypes="cc" />
    <path
       style="fill:none;stroke:#000000;stroke-width:1.32291667;stroke-linecap:butt;stroke-linejoin:miter;stroke-miterlimit:4;stroke-dasharray:none;stroke-opacity:1"
       d="m 99.497106,206.8731 4.601834,24.61281"
       id="path5446" />
    <path
       style="fill:none;stroke:#000000;stroke-width:1.32291667;stroke-linecap:butt;stroke-linejoin:miter;stroke-miterlimit:4;stroke-dasharray:none;stroke-opacity:1"
       d="m 106.05123,231.06756 4.2532,-24.47336"
       id="path5448" />
    <path
       style="fill:none;stroke:#000000;stroke-width:1.32291667;stroke-linecap:butt;stroke-linejoin:miter;stroke-miterlimit:4;stroke-dasharray:none;stroke-opacity:1"
       d="m 100.23519,231.16705 c 0,0 1.33156,0.93546 1.98117,0.87666 0.60008,-0.0543 1.22884,-0.58912 1.88258,-0.5578 0.32547,0.0156 0.76395,0.40036 1.06665,0.27977 0.35816,-0.14268 0.45294,-0.61427 0.88564,-0.69812 0.67267,-0.13036 0.66338,1.35215 1.30733,1.58624 0.56658,0.20596 1.77798,-0.33119 1.77798,-0.33119"
       id="path5582"
       sodipodi:nodetypes="csssssc" />
    <path
       style="fill:#000000;stroke:#000000;stroke-width:1.32291667;stroke-linecap:butt;stroke-linejoin:miter;stroke-miterlimit:4;stroke-dasharray:none;stroke-opacity:1"
       d="m 103.66316,238.54553 2.61467,0.0174 -1.3422,2.96329 z"
       id="path6510" />
    <path
       style="fill:none;stroke:#000000;stroke-width:1.32291667;stroke-linecap:butt;stroke-linejoin:round;stroke-miterlimit:4;stroke-dasharray:none;stroke-opacity:1"
       d="m 114.83653,260.07303 c 0,0 1.54583,-1.18022 1.96178,-2.02224 0.37161,-0.75225 0.50796,-1.66222 0.36977,-2.48979 -0.12349,-0.7395 -0.5083,-1.46355 -1.03536,-1.99676 -0.98202,-0.99348 -2.35202,-1.59729 -3.69771,-1.97211 -1.63298,-0.45485 -3.38899,-0.41296 -5.07819,-0.27117 -1.23364,0.10355 -2.40549,0.5934 -3.62375,0.8135 -1.30597,0.23594 -2.61759,0.50683 -3.944226,0.54233 -1.186944,0.0318 -2.422717,0.0777 -3.549801,-0.29582 -0.973962,-0.32278 -1.976284,-0.76866 -2.760957,-1.42978 -0.689897,-0.58127 -1.384698,-1.35689 -1.651642,-2.21862 -0.269623,-0.87037 -0.02974,-1.88116 0.34512,-2.71166 0.373665,-0.82786 1.069089,-1.50625 1.79955,-2.04606 1.029303,-0.76066 2.290113,-1.16172 3.500498,-1.57769 0.887736,-0.30509 1.802902,-0.56605 2.736308,-0.66559 1.25056,-0.13336 2.52643,-0.0777 3.77166,0.0986 0.38678,0.0548 0.95965,0.17379 0.95965,0.17379"
       id="path6662"
       sodipodi:nodetypes="csssssssssssssssc" />
    <path
       style="fill:none;stroke:#000000;stroke-width:1.32291667;stroke-linecap:butt;stroke-linejoin:miter;stroke-miterlimit:4;stroke-dasharray:none;stroke-opacity:1"
       d="m 93.012711,175.2181 5.543114,6.62384"
       id="path7028" />
    <path
       style="fill:none;stroke:#000000;stroke-width:1.32291667;stroke-linecap:butt;stroke-linejoin:round;stroke-miterlimit:4;stroke-dasharray:none;stroke-opacity:1;paint-order:normal"
       d="m 110.23471,181.87681 3.13761,-4.67156 1.77798,0.90642"
       id="path7030"
       sodipodi:nodetypes="ccc" />
    <ellipse
       style="opacity:1;fill:none;stroke:#000000;stroke-width:1.32293263;stroke-linejoin:round;stroke-miterlimit:4;stroke-dasharray:none;paint-order:normal"
       id="path8120"
       cx="91.871811"
       cy="174.76353"
       rx="1.5569248"
       ry="1.4890962"
       transform="matrix(0.99997586,-0.00694895,0,1,0,0)" />
    <ellipse
       style="fill:none;stroke:#000000;stroke-width:1.32293263;stroke-linejoin:round;stroke-miterlimit:4;stroke-dasharray:none;paint-order:normal"
       id="path8120-1"
       cx="116.65321"
       cy="179.38533"
       rx="1.5569248"
       ry="1.4890962"
       transform="matrix(0.99997586,-0.00694895,0,1,0,0)" />
  </g>
</svg>
